# xmcd
#
# Track frame offsets:
#	150
#	15900
#	28200
#	49800
#	70275
#	88800
#	111150
#	127425
#	150300
#	162675
#	181125
#	196725
#
# Disc length: 2824 seconds
#
# Revision: 0
# Processed by: cddbd v1.4PL0 Copyright (c) Steve Scherf et al.
# Submitted via: EasyCDDAExtractor 4.6.9.1
#
DISCID=a10b060c
DTITLE=Gombitova Marika - Moje najmiljsie
DYEAR=1985
DGENRE=Pop
TTITLE0=30 stupnov v tieni
TTITLE1=Den leti
TTITLE2=Vyznanie
TTITLE3=Dievca s krasnou tvarou
TTITLE4=Den velkych nadeji
TTITLE5=Cirkusovy kon
TTITLE6=Uzemie zazrakov
TTITLE7=Priputana
TTITLE8=Moj brat strom
TTITLE9=Smetiarsky kral
TTITLE10=Kusok stastia
TTITLE11=Na rozlucku
EXTD=
EXTT0=
EXTT1=
EXTT2=
EXTT3=
EXTT4=
EXTT5=
EXTT6=
EXTT7=
EXTT8=
EXTT9=
EXTT10=
EXTT11=
PLAYORDER=
